<?xml version="1.0" encoding="utf-8"?>
<!-- Generator: Adobe Illustrator 22.1.0, SVG Export Plug-In . SVG Version: 6.00 Build 0)  -->
<svg version="1.1" id="Capa_1" xmlns="http://www.w3.org/2000/svg" xmlns:xlink="http://www.w3.org/1999/xlink" x="0px" y="0px"
	 viewBox="0 0 120 66" style="enable-background:new 0 0 120 66;" xml:space="preserve">
<style type="text/css">
	.st0{fill:#3D64D3;}
	.st1{fill:#FFFFFF;}
</style>
<ellipse transform="matrix(8.075044e-03 -1 1 8.075044e-03 -7.2048 57.7368)" class="st0" cx="25.5" cy="32.5" rx="24.5" ry="24.5"/>
<g>
	<path class="st1" d="M39.3,30.2c0-1.1-0.3-1.9-1-2.5c-0.6-0.6-1.4-1-2.3-1h-7.3c-0.4,0-0.8,0.4-0.8,0.8v0.7c0,0.4,0.4,0.8,0.8,0.8
		h6.6c0.6,0,1.1,0.4,1.1,1.2c0,0.8-0.5,1.2-1.1,1.2c0,0-6,0-6,0h-0.5c-0.4,0-0.8,0.4-0.8,0.8v0.7c0,0.4,0.4,0.8,0.8,0.8h6.6
		c0.6,0,1.1,0.4,1.1,1.2c0,0.8-0.5,1.2-1.1,1.2h-5.9c0,0-0.6,0-0.6,0c-0.4,0-0.8,0.4-0.8,0.8v0.7c0,0.4,0.4,0.8,0.8,0.8H36
		c0.9,0,1.7-0.3,2.3-1c0.6-0.6,1-1.4,1-2.5c0-1.1-0.3-1.7-0.8-2.3C39.1,31.9,39.3,31.3,39.3,30.2z"/>
	<path class="st1" d="M25,26.7h-1.2c-0.4,0-0.8,0.4-0.8,0.8v0.6c0,0,0,7.6,0,7.6c0,0.2-0.1,0.3-0.3,0.3h-2.3c-0.2,0-0.3-0.1-0.3-0.3
		v-7c0,0,0-1.2,0-1.2c0-0.4-0.4-0.8-0.8-0.8h-1.2c-0.4,0-0.7,0.3-0.8,0.6c0,0,0,0,0,0v8.3c0,0.2-0.1,0.3-0.3,0.3h-1.6
		c-0.6,0-1.1-0.5-1.1-1v-7.4c0-0.4-0.4-0.8-0.8-0.8h-1.2c-0.4,0-0.8,0.4-0.8,0.8v7.6c0,1.9,1.6,3.1,3.2,3.1h10.7
		c0.2,0,0.3-0.1,0.3-0.3v-9.3v-1.2C25.9,27.1,25.5,26.7,25,26.7z"/>
</g>
<g>
	<path class="st1" d="M59,38.5c-0.7,0-1.4-0.1-2-0.4c-0.6-0.2-1.1-0.6-1.6-1.1c-0.4-0.5-0.8-1-1-1.7c-0.2-0.7-0.4-1.5-0.4-2.3
		c0-0.9,0.1-1.7,0.4-2.3c0.3-0.7,0.6-1.3,1.1-1.7c0.5-0.5,1-0.8,1.6-1.1c0.6-0.2,1.3-0.4,1.9-0.4c0.4,0,0.8,0,1.2,0.1
		c0.3,0.1,0.7,0.1,0.9,0.2c0.3,0.1,0.5,0.2,0.6,0.2c0.2,0.1,0.3,0.1,0.3,0.2l-0.4,1.2c-0.1-0.1-0.2-0.1-0.4-0.2
		c-0.2-0.1-0.4-0.1-0.6-0.2c-0.2-0.1-0.5-0.1-0.7-0.2c-0.3,0-0.5-0.1-0.8-0.1c-0.6,0-1.1,0.1-1.5,0.3c-0.4,0.2-0.8,0.5-1.1,0.8
		c-0.3,0.4-0.6,0.8-0.7,1.3c-0.2,0.5-0.3,1.1-0.3,1.8c0,0.6,0.1,1.2,0.2,1.7c0.1,0.5,0.4,1,0.7,1.3c0.3,0.4,0.7,0.7,1.1,0.9
		c0.4,0.2,1,0.3,1.5,0.3c0.7,0,1.2-0.1,1.7-0.2c0.4-0.1,0.8-0.3,1-0.4l0.4,1.2c-0.1,0.1-0.2,0.1-0.4,0.2c-0.2,0.1-0.4,0.1-0.7,0.2
		c-0.3,0.1-0.6,0.1-1,0.2C59.8,38.5,59.5,38.5,59,38.5z"/>
	<path class="st1" d="M70.7,34.4c0,0.6-0.1,1.2-0.3,1.7c-0.2,0.5-0.4,0.9-0.8,1.3c-0.3,0.4-0.7,0.6-1.2,0.8c-0.5,0.2-1,0.3-1.5,0.3
		c-0.5,0-1-0.1-1.5-0.3c-0.5-0.2-0.8-0.5-1.2-0.8c-0.3-0.4-0.6-0.8-0.8-1.3c-0.2-0.5-0.3-1.1-0.3-1.7c0-0.6,0.1-1.2,0.3-1.7
		c0.2-0.5,0.4-0.9,0.8-1.3c0.3-0.4,0.7-0.6,1.2-0.8c0.5-0.2,1-0.3,1.5-0.3c0.5,0,1,0.1,1.5,0.3c0.5,0.2,0.8,0.5,1.2,0.8
		c0.3,0.4,0.6,0.8,0.8,1.3C70.6,33.2,70.7,33.7,70.7,34.4z M69.3,34.4c0-0.9-0.2-1.6-0.6-2.1c-0.4-0.5-0.9-0.8-1.6-0.8
		c-0.7,0-1.2,0.3-1.6,0.8c-0.4,0.5-0.6,1.2-0.6,2.1c0,0.9,0.2,1.6,0.6,2.1c0.4,0.5,0.9,0.8,1.6,0.8c0.7,0,1.2-0.3,1.6-0.8
		C69.1,35.9,69.3,35.2,69.3,34.4z"/>
	<path class="st1" d="M77.8,37.5c-0.1,0.1-0.4,0.2-0.7,0.3c-0.3,0.1-0.8,0.2-1.2,0.2c-0.5,0-0.9-0.1-1.3-0.2
		c-0.4-0.2-0.8-0.4-1.1-0.7c-0.3-0.3-0.6-0.7-0.7-1.2c-0.2-0.5-0.3-1-0.3-1.7c0-0.6,0.1-1.1,0.3-1.6c0.2-0.5,0.4-0.9,0.8-1.2
		c0.3-0.3,0.7-0.6,1.2-0.8c0.5-0.2,1-0.3,1.6-0.3c0.7,0,1.2,0,1.7,0.1c0.5,0.1,0.9,0.2,1.2,0.3v7.1c0,1.2-0.3,2.1-0.9,2.6
		c-0.6,0.5-1.6,0.8-2.9,0.8c-0.5,0-1,0-1.4-0.1c-0.4-0.1-0.8-0.2-1.1-0.3l0.3-1.2c0.3,0.1,0.6,0.2,1,0.3c0.4,0.1,0.8,0.1,1.3,0.1
		c0.8,0,1.4-0.2,1.8-0.5c0.4-0.3,0.6-0.9,0.6-1.6V37.5z M77.8,31.6c-0.1,0-0.3-0.1-0.6-0.1c-0.2,0-0.6-0.1-1-0.1
		c-0.8,0-1.3,0.2-1.8,0.7c-0.4,0.5-0.6,1.2-0.6,2c0,0.5,0.1,0.8,0.2,1.2c0.1,0.3,0.3,0.6,0.5,0.8s0.4,0.4,0.7,0.5
		c0.3,0.1,0.5,0.2,0.8,0.2c0.4,0,0.7-0.1,1-0.2c0.3-0.1,0.6-0.2,0.7-0.4V31.6z"/>
	<path class="st1" d="M81.8,30.6c0.3-0.1,0.8-0.2,1.3-0.3c0.5-0.1,1.2-0.1,1.9-0.1c0.6,0,1.1,0.1,1.6,0.3c0.4,0.2,0.7,0.4,1,0.7
		c0.2,0.3,0.4,0.7,0.5,1.1c0.1,0.4,0.2,0.9,0.2,1.5v4.4h-1.4v-4.1c0-0.5,0-0.9-0.1-1.2c-0.1-0.3-0.2-0.6-0.3-0.8
		c-0.2-0.2-0.4-0.4-0.6-0.5c-0.3-0.1-0.6-0.1-0.9-0.1c-0.2,0-0.3,0-0.5,0c-0.2,0-0.3,0-0.5,0c-0.1,0-0.3,0-0.4,0.1
		c-0.1,0-0.2,0-0.3,0v6.7h-1.4V30.6z"/>
	<path class="st1" d="M91.4,29c-0.3,0-0.5-0.1-0.6-0.3c-0.2-0.2-0.3-0.4-0.3-0.7c0-0.3,0.1-0.5,0.3-0.7c0.2-0.2,0.4-0.3,0.6-0.3
		c0.3,0,0.5,0.1,0.6,0.3c0.2,0.2,0.3,0.4,0.3,0.7c0,0.3-0.1,0.5-0.3,0.7C91.8,28.9,91.6,29,91.4,29z M92.1,38.3h-1.4v-7.9h1.4V38.3z
		"/>
	<path class="st1" d="M96,30.4h3v1.2h-3v3.6c0,0.4,0,0.7,0.1,1s0.2,0.5,0.3,0.6c0.1,0.1,0.3,0.3,0.5,0.3c0.2,0.1,0.4,0.1,0.6,0.1
		c0.4,0,0.8,0,1-0.1c0.3-0.1,0.4-0.2,0.5-0.2l0.3,1.2c-0.1,0.1-0.4,0.2-0.7,0.3c-0.4,0.1-0.8,0.2-1.2,0.2c-0.5,0-1-0.1-1.3-0.2
		c-0.3-0.1-0.6-0.3-0.8-0.6c-0.2-0.3-0.4-0.6-0.4-1c-0.1-0.4-0.1-0.9-0.1-1.4v-7.1L96,28V30.4z"/>
	<path class="st1" d="M101.6,29c-0.3,0-0.5-0.1-0.6-0.3c-0.2-0.2-0.3-0.4-0.3-0.7c0-0.3,0.1-0.5,0.3-0.7c0.2-0.2,0.4-0.3,0.6-0.3
		c0.3,0,0.5,0.1,0.6,0.3c0.2,0.2,0.3,0.4,0.3,0.7c0,0.3-0.1,0.5-0.3,0.7C102.1,28.9,101.9,29,101.6,29z M102.3,38.3h-1.4v-7.9h1.4
		V38.3z"/>
	<path class="st1" d="M111.1,30.4c-0.4,1.5-0.9,2.9-1.4,4.3c-0.5,1.4-1,2.6-1.5,3.6h-1.3c-0.5-1.1-1-2.3-1.5-3.6
		c-0.5-1.4-1-2.8-1.4-4.3h1.5c0.1,0.5,0.3,1,0.4,1.6c0.2,0.6,0.3,1.1,0.5,1.7c0.2,0.6,0.4,1.1,0.6,1.6c0.2,0.5,0.4,1,0.5,1.4
		c0.2-0.4,0.4-0.9,0.5-1.4c0.2-0.5,0.4-1.1,0.6-1.6c0.2-0.6,0.4-1.1,0.5-1.7c0.2-0.6,0.3-1.1,0.4-1.6H111.1z"/>
	<path class="st1" d="M112.1,34.4c0-0.7,0.1-1.3,0.3-1.8c0.2-0.5,0.5-1,0.8-1.3c0.3-0.3,0.7-0.6,1.2-0.8c0.4-0.2,0.9-0.3,1.3-0.3
		c1.1,0,1.9,0.3,2.4,1c0.6,0.7,0.9,1.7,0.9,3c0,0.1,0,0.1,0,0.2c0,0.1,0,0.2,0,0.3h-5.4c0.1,0.8,0.3,1.4,0.7,1.9
		c0.4,0.4,1.1,0.6,1.9,0.6c0.5,0,0.9,0,1.3-0.1c0.3-0.1,0.6-0.2,0.8-0.3l0.2,1.2c-0.2,0.1-0.5,0.2-0.9,0.3c-0.4,0.1-0.9,0.2-1.5,0.2
		c-0.7,0-1.3-0.1-1.8-0.3c-0.5-0.2-0.9-0.5-1.2-0.9c-0.3-0.4-0.6-0.8-0.7-1.3C112.1,35.5,112.1,35,112.1,34.4z M117.5,33.6
		c0-0.6-0.1-1.2-0.5-1.6c-0.3-0.4-0.8-0.6-1.4-0.6c-0.3,0-0.6,0.1-0.9,0.2c-0.2,0.1-0.5,0.3-0.6,0.5c-0.2,0.2-0.3,0.4-0.4,0.7
		c-0.1,0.3-0.2,0.5-0.2,0.8H117.5z"/>
</g>
</svg>
